PathFileType	4	(X/Y/Z)	s06c0301.trc
DataRate	CameraRate	NumFrames	NumMarkers	Units	OrigDataRate	OrigDataStartFrame	OrigNumFrames
200	200	6	48	mm	200	500	2000
Frame#	Time	racr			lacr			c7			jug			rlel			rdr			llel			ldr			s2			lic			ric			lasi			rasi			rpsi			lpsi			rgt			lgt			rth1			rth2			rth3			rth4			rlfc			rmfc			rsh1			rsh2			rsh3			rsh4			rlmal			rcal			rtoe			rmt5			lth1			lth2			lth4			lth3			llfc			lmfc			llmal			lcal			lmt5			lsh1			lsh2			lsh3			lsh4			ltoe			SBIKE			LBIKE			RBIKE			
		X1	Y1	Z1	X2	Y2	Z2	X3	Y3	Z3	X4	Y4	Z4	X5	Y5	Z5	X6	Y6	Z6	X7	Y7	Z7	X8	Y8	Z8	X9	Y9	Z9	X10	Y10	Z10	X11	Y11	Z11	X12	Y12	Z12	X13	Y13	Z13	X14	Y14	Z14	X15	Y15	Z15	X16	Y16	Z16	X17	Y17	Z17	X18	Y18	Z18	X19	Y19	Z19	X20	Y20	Z20	X21	Y21	Z21	X22	Y22	Z22	X23	Y23	Z23	X24	Y24	Z24	X25	Y25	Z25	X26	Y26	Z26	X27	Y27	Z27	X28	Y28	Z28	X29	Y29	Z29	X30	Y30	Z30	X31	Y31	Z31	X32	Y32	Z32	X33	Y33	Z33	X34	Y34	Z34	X35	Y35	Z35	X36	Y36	Z36	X37	Y37	Z37	X38	Y38	Z38	X39	Y39	Z39	X40	Y40	Z40	X41	Y41	Z41	X42	Y42	Z42	X43	Y43	Z43	X44	Y44	Z44	X45	Y45	Z45	X46	Y46	Z46	X47	Y47	Z47	X48	Y48	Z48	
500	2.5000	663.311301	1261.079206	-74.053055	682.766687	1243.351725	-392.689761	695.244347	1330.084021	-240.558180	643.020571	1163.264158	-229.829104	523.431199	1040.432390	16.214984	712.352288	931.471885	-59.004974	545.425490	1033.398738	-515.799264	709.824610	922.520899	-423.780876	128.309016	1174.781664	-286.342969	307.192956	1109.888531	-435.495463	251.517810	1142.032370	-112.987614	306.174618	1053.379821	-394.258788	279.942497	1094.704102	-139.132483	166.348102	1213.517193	-265.998926	167.096391	1200.140985	-326.114111	217.672854	1078.197581	-79.440777	267.150752	1036.378846	-466.319267	295.205322	969.098961	-49.974873	360.639326	906.368995	-44.331187	384.105732	822.080534	-44.595878	390.963954	925.231072	-58.402254	418.200512	716.561277	-53.964762	417.303027	688.643298	-162.608292	374.745207	596.996146	-32.289607	364.039322	512.377192	-51.716529	313.983477	441.617722	-58.007333	387.744416	507.847577	-84.744031	273.920125	367.407756	-64.198692	210.392482	342.121545	-114.912043	482.486740	290.434641	-100.220171	380.766919	285.003142	-34.909178	312.840832	926.957854	-456.722738	377.502300	870.876485	-441.733477	405.777316	891.616893	-430.785616	405.815539	786.902671	-427.156875	416.162688	679.015118	-398.547688	407.628666	676.469771	-281.042773	106.064074	484.501201	-383.356779	48.217389	530.549606	-339.456308	93.571922	335.648594	-403.459226	338.210385	606.925965	-416.150261	278.196113	549.033998	-391.416451	193.348156	520.653247	-391.069962	291.791686	536.084547	-356.116477	134.036690	260.650295	-344.536830	-202.430683	867.338415	-220.021723	-48.659315	79.934455	-420.230691	-49.792342	79.436712	-22.909653	
501	2.5050	663.937607	1260.811912	-75.380214	682.086738	1243.420936	-393.865255	694.572254	1329.662691	-242.375464	643.334370	1162.591841	-231.107696	523.992498	1040.846950	16.335790	712.259152	931.398609	-59.284152	545.111058	1032.529341	-516.412057	709.544757	922.411923	-424.083370	128.084243	1171.625785	-285.970752	306.701913	1108.816201	-436.053360	252.499610	1138.079311	-113.268881	306.065094	1052.460937	-395.296115	280.888677	1090.992078	-139.790803	166.193318	1210.582881	-265.158115	166.618396	1197.522358	-325.260209	218.924105	1073.838296	-80.019559	266.172216	1036.182544	-467.651624	294.974801	964.062091	-50.832755	359.366958	900.174363	-45.559469	381.711905	815.455970	-45.572317	389.982209	918.734908	-59.398510	414.524313	708.965472	-55.275922	411.808975	681.298564	-163.940157	371.135935	589.609236	-32.866012	361.154919	504.823175	-52.196238	311.631043	433.656755	-58.396931	385.479941	500.089898	-85.471502	271.983768	359.646652	-64.357152	208.571216	334.797631	-114.918099	480.510895	281.751482	-100.369275	378.873133	276.808195	-35.131097	312.762312	927.827646	-457.396231	378.946730	872.961164	-443.895756	407.049437	894.223241	-433.667295	409.098953	789.566225	-429.641281	421.825187	682.039077	-399.821658	411.308850	679.197557	-283.249113	108.698916	491.724665	-382.674865	51.028078	538.542162	-339.480014	95.777982	343.508194	-403.473114	343.313319	610.568051	-416.900130	282.308522	553.896200	-391.906161	196.950961	527.075269	-391.421318	295.112852	540.298710	-355.547816	136.047395	268.369254	-344.732108	-202.404956	867.328778	-220.159014	-48.681233	79.898935	-420.269436	-49.805573	79.434059	-22.951439	
502	2.5100	664.528052	1260.806608	-76.608792	681.488049	1243.651082	-395.012244	693.898788	1329.416835	-244.018942	643.671416	1162.097226	-232.185563	524.542611	1041.330440	16.296902	712.155946	931.374025	-59.702618	544.753513	1032.154122	-517.057128	709.266718	922.323606	-424.682936	128.159983	1168.630021	-285.278818	306.091854	1107.954971	-436.547441	253.456525	1134.358061	-113.394640	305.992571	1051.636400	-396.178756	282.170894	1087.751093	-140.320257	165.931109	1207.721016	-264.311387	166.078566	1195.001336	-324.279370	220.261461	1069.147905	-80.591315	265.431719	1035.840146	-468.861939	294.701887	959.103545	-51.629116	357.979742	893.905266	-46.458167	380.305862	809.008534	-46.014840	388.913063	911.976981	-60.255246	410.224959	701.898273	-56.091265	406.803137	674.052710	-164.762016	367.479867	582.500563	-33.252750	358.240522	497.519981	-52.535247	309.240581	425.963336	-58.795529	382.396559	492.793013	-86.039103	270.490610	351.655371	-65.191519	206.631635	327.922735	-114.898858	478.275143	272.907290	-100.589567	376.587475	268.703263	-35.372206	312.992268	928.679710	-458.498273	380.331472	875.019215	-446.161691	408.303338	896.713137	-436.446785	412.200999	792.269674	-432.697375	427.628045	685.175305	-401.009121	417.534791	683.622077	-284.578151	111.997938	500.081048	-383.790223	54.093971	546.297889	-339.672929	98.371576	351.492207	-403.850444	348.287461	614.506780	-417.738756	286.284125	558.905741	-392.365999	200.606254	533.447834	-391.876379	299.434522	545.998989	-357.146518	138.510941	276.038796	-344.910342	-202.315641	867.286722	-220.513007	-48.651883	79.743505	-420.340240	-49.805791	79.385880	-23.003806	
503	2.5150	665.143749	1260.948048	-77.787937	680.954779	1243.993912	-396.097965	693.291845	1329.244135	-245.527030	644.005476	1161.704646	-233.121148	525.071325	1041.575607	15.869999	712.033155	931.306638	-60.044764	544.564116	1032.224907	-517.562347	709.242803	922.009493	-425.087209	128.221754	1165.520226	-284.804410	305.582454	1107.225862	-436.953473	254.662549	1130.356650	-113.509251	305.952870	1051.115041	-397.077880	283.086034	1083.881034	-140.878203	165.576600	1204.886816	-263.085429	165.584725	1192.528860	-323.314296	221.424825	1064.650326	-80.821183	264.907617	1035.547599	-470.031659	294.485383	953.962964	-52.230444	356.503719	887.597325	-47.119616	376.222542	802.142270	-47.447101	387.814508	905.085152	-60.787266	405.918734	694.937039	-56.600109	401.868254	667.156269	-165.303376	363.384718	575.656528	-33.592545	355.139279	490.764382	-52.737516	306.986860	418.609846	-59.128833	379.337096	486.395750	-85.926670	268.517048	344.423797	-65.327088	204.555081	321.306238	-114.885027	475.763799	264.251045	-100.951850	374.023415	260.745530	-35.516033	313.517717	929.493020	-460.151539	381.888672	877.018121	-448.307753	409.537794	899.263853	-438.989498	415.563193	794.963862	-436.345582	433.459122	688.423428	-402.416723	423.864084	687.482449	-285.595490	115.330651	507.508130	-384.354985	57.293433	553.954704	-340.091071	101.336353	358.773681	-403.774543	353.083991	618.617808	-418.589662	290.393987	563.959673	-393.153694	204.273324	539.686964	-392.488517	303.477025	550.553173	-357.765636	141.418365	283.569753	-344.939139	-202.210214	867.276608	-220.954990	-48.629759	79.609602	-420.408480	-49.827567	79.326375	-23.084341	
504	2.5200	665.679864	1261.255856	-78.824493	680.482149	1244.383360	-397.005036	692.685785	1329.252736	-246.864700	644.376142	1161.486658	-233.933703	525.446816	1042.009935	15.402489	711.957401	931.215165	-60.336739	544.551495	1032.647387	-517.970650	709.248880	922.300281	-425.955058	127.651443	1162.954662	-283.582357	305.087184	1106.690943	-437.325939	255.899721	1126.756583	-113.446272	305.968900	1050.567292	-398.003122	285.197409	1081.257386	-141.440899	165.187262	1202.161277	-261.785683	165.180793	1190.276685	-322.532673	223.277745	1059.589343	-82.159151	264.758424	1035.553722	-471.181003	294.116394	948.869527	-52.619453	354.926897	881.381437	-47.438039	371.486707	794.995224	-49.666840	386.668083	898.298765	-60.962098	401.674714	688.533367	-56.820513	397.131895	660.490328	-165.583861	359.176022	569.452773	-34.074241	351.808248	484.062959	-52.732239	304.471225	411.771701	-59.288708	376.143697	480.282943	-85.784168	266.256904	337.627031	-65.370385	202.202733	315.279566	-114.795061	472.881994	255.375212	-101.030705	371.083364	252.979329	-35.629576	314.306057	930.179707	-462.120138	383.634879	878.984789	-450.395055	410.955169	901.675009	-441.175769	418.907360	797.603799	-439.357142	439.155536	691.968471	-404.065677	429.822654	691.628890	-287.014821	118.741936	514.717840	-385.030218	60.547298	561.425294	-340.845761	104.681480	366.212122	-404.032866	357.843510	622.913084	-419.646218	294.425364	568.986097	-394.041540	208.049040	545.801761	-393.281042	307.570958	555.745076	-359.041960	144.788393	291.151477	-345.059256	-202.139956	867.202953	-221.325369	-48.602965	79.509676	-420.472492	-49.856942	79.293010	-23.135475	
505	2.5250	666.235479	1261.965447	-79.412457	680.094019	1244.903646	-397.878324	692.093830	1329.464207	-247.987456	644.817344	1161.483379	-234.279793	525.769966	1042.409833	14.754563	711.999827	931.176372	-60.466164	544.748189	1033.187254	-518.407280	709.408665	922.307791	-426.230618	127.983425	1160.881271	-282.074035	304.695226	1106.219039	-437.611792	257.108729	1123.290780	-113.348645	306.067991	1050.167137	-398.723538	286.321797	1078.070414	-141.796744	164.840470	1199.996919	-260.675475	164.810096	1187.998944	-321.468365	224.332860	1055.169941	-82.347916	264.661955	1035.588473	-472.096298	293.688699	943.827499	-52.826822	353.186347	875.259289	-47.559539	369.413054	788.922310	-49.184899	385.329074	891.718714	-60.821581	397.506834	682.494790	-57.006670	393.560114	654.025016	-165.174181	355.154217	563.492976	-34.058101	348.363161	478.093986	-52.652154	301.570150	405.377174	-59.339307	372.505299	474.319584	-85.833131	263.718335	331.283215	-65.343902	199.704336	309.739063	-114.570802	469.619615	246.733986	-101.086804	367.884971	245.475584	-35.669240	315.397786	930.806716	-464.195304	385.658400	881.059067	-452.535853	412.569097	903.992308	-443.048771	422.492749	800.294927	-441.890862	444.757733	695.747037	-405.942278	435.126530	695.242555	-288.919880	122.251424	521.719697	-385.987036	63.818950	568.924457	-341.779447	108.329605	373.422712	-404.291851	362.546838	627.083337	-421.130644	298.277513	574.178055	-394.940741	211.909352	551.754281	-394.257852	311.570266	560.735153	-360.100651	148.615496	298.700767	-344.893937	-202.169728	867.136744	-221.485871	-48.619907	79.486753	-420.508165	-49.853518	79.288700	-23.159380	
